<mxfile host="app.diagrams.net" modified="2023-05-06T08:53:33.644Z" agent="Mozilla/5.0 (Windows NT 10.0; Win64; x64) AppleWebKit/537.36 (KHTML, like Gecko) Chrome/112.0.0.0 Safari/537.36" version="21.2.8" etag="I31nRTl0DmrSF3ZnuB5V" type="github">
  <diagram name="Page-1" id="OannjaR6fSQjbODMCAjz">
    <mxGraphModel>
      <root>
        <mxCell id="0" />
        <mxCell id="1" parent="0" />
      </root>
    </mxGraphModel>
  </diagram>
</mxfile>
